<mxfile host="app.diagrams.net" agent="Mozilla/5.0 (Windows NT 10.0; Win64; x64) AppleWebKit/537.36 (KHTML, like Gecko) Chrome/137.0.0.0 Safari/537.36" version="27.1.3">
  <diagram name="PÃ¡gina-1" id="ga_tERwrIgRPGAAt7Y_O">
    <mxGraphModel dx="1110" dy="605" grid="1" gridSize="10" guides="1" tooltips="1" connect="1" arrows="1" fold="1" page="1" pageScale="1" pageWidth="827" pageHeight="1169" math="0" shadow="0">
      <root>
        <mxCell id="0" />
        <mxCell id="1" parent="0" />
        <mxCell id="2HQfMmjuulNCHXGB5H8w-14" value="" style="group" vertex="1" connectable="0" parent="1">
          <mxGeometry x="30" y="60" width="370" height="140" as="geometry" />
        </mxCell>
        <mxCell id="2HQfMmjuulNCHXGB5H8w-3" value="" style="rounded=0;whiteSpace=wrap;html=1;dashed=1;dashPattern=12 12;align=left;" vertex="1" parent="2HQfMmjuulNCHXGB5H8w-14">
          <mxGeometry width="370" height="140" as="geometry" />
        </mxCell>
        <mxCell id="2HQfMmjuulNCHXGB5H8w-4" value="BLOBS" style="rounded=1;whiteSpace=wrap;html=1;" vertex="1" parent="2HQfMmjuulNCHXGB5H8w-14">
          <mxGeometry x="20" y="40" width="50" height="20" as="geometry" />
        </mxCell>
        <mxCell id="2HQfMmjuulNCHXGB5H8w-5" value="P2P" style="rounded=1;whiteSpace=wrap;html=1;" vertex="1" parent="2HQfMmjuulNCHXGB5H8w-14">
          <mxGeometry x="80" y="40" width="40" height="20" as="geometry" />
        </mxCell>
        <mxCell id="2HQfMmjuulNCHXGB5H8w-6" value="RANDAO" style="rounded=1;whiteSpace=wrap;html=1;" vertex="1" parent="2HQfMmjuulNCHXGB5H8w-14">
          <mxGeometry x="30" y="80" width="70" height="20" as="geometry" />
        </mxCell>
        <mxCell id="2HQfMmjuulNCHXGB5H8w-8" value="Fork choice" style="rounded=1;whiteSpace=wrap;html=1;" vertex="1" parent="2HQfMmjuulNCHXGB5H8w-14">
          <mxGeometry x="140" y="80" width="70" height="20" as="geometry" />
        </mxCell>
        <mxCell id="2HQfMmjuulNCHXGB5H8w-9" value="LMD - GHOST" style="rounded=1;whiteSpace=wrap;html=1;" vertex="1" parent="2HQfMmjuulNCHXGB5H8w-14">
          <mxGeometry x="240" y="40" width="90" height="20" as="geometry" />
        </mxCell>
        <mxCell id="2HQfMmjuulNCHXGB5H8w-13" value="Consensus Layer" style="text;html=1;align=left;verticalAlign=middle;whiteSpace=wrap;rounded=0;fontSize=15;" vertex="1" parent="2HQfMmjuulNCHXGB5H8w-14">
          <mxGeometry x="20" width="155" height="30" as="geometry" />
        </mxCell>
      </root>
    </mxGraphModel>
  </diagram>
</mxfile>
